<svg viewBox="0 0 140 146" fill="none" xmlns="http://www.w3.org/2000/svg" shape-rendering="crispEdges" style="overflow:visible"><rect x="94.3401" y="136.99" width="11" height="9" fill="#DD775B"/><rect x="21.6599" y="136.99" width="11" height="9" fill="#DD775B"/><rect x="42" y="136.99" width="11" height="9" fill="#DD775B"/><rect x="74" y="136.99" width="11" height="9" fill="#DD775B"/><g transform="translate(-5,0)"><rect x="94.3401" y="125.99" width="11" height="11" fill="#DD775B"/><rect x="21.6599" y="125.99" width="11" height="11" fill="#DD775B"/><rect x="42" y="125.99" width="11" height="11" fill="#DD775B"/><rect x="74" y="125.99" width="11" height="11" fill="#DD775B"/><rect x="21.6589" y="62" width="83.6822" height="63.9922" fill="#DD775B"/><rect y="94" width="22" height="23" fill="#DD775B"/><rect x="84" y="71" width="10" height="6" fill="black"/><rect x="94" y="77" width="6" height="6" fill="black"/><rect x="78" y="77" width="6" height="6" fill="black"/><rect x="33" y="71" width="10" height="6" fill="black"/><rect x="43" y="77" width="6" height="6" fill="black"/><rect x="27" y="77" width="6" height="6" fill="black"/><g transform="translate(-16,0)"><rect x="92" y="46" width="21.6589" height="22.6434" fill="#DD775B"/><g transform="translate(100, 0)"><rect width="5" height="52" fill="black"/><rect x="5" width="5" height="5" fill="white"/><rect x="15" width="5" height="5" fill="white"/><rect x="25" width="5" height="5" fill="white"/><rect x="5" y="10" width="5" height="5" fill="white"/><rect x="5" y="20" width="5" height="5" fill="white"/><rect x="15" y="10" width="5" height="5" fill="white"/><rect x="25" y="10" width="5" height="5" fill="white"/><rect x="35" y="10" width="5" height="5" fill="white"/><rect x="15" y="20" width="5" height="5" fill="white"/><rect x="35" y="30" width="5" height="5" fill="white"/><rect x="45" y="30" width="5" height="5" fill="white"/><rect x="45" y="40" width="5" height="5" fill="white"/><rect x="40" y="35" width="5" height="5" fill="white"/><rect x="50" y="35" width="5" height="5" fill="white"/><rect x="25" y="20" width="5" height="5" fill="white"/><rect x="35" y="20" width="5" height="5" fill="white"/><rect x="45" y="20" width="5" height="5" fill="white"/><rect x="10" y="5" width="5" height="5" fill="white"/><rect x="20" y="5" width="5" height="5" fill="white"/><rect x="30" y="5" width="5" height="5" fill="white"/><rect x="10" y="15" width="5" height="5" fill="white"/><rect x="10" y="25" width="5" height="5" fill="white"/><rect x="20" y="15" width="5" height="5" fill="white"/><rect x="30" y="15" width="5" height="5" fill="white"/><rect x="40" y="15" width="5" height="5" fill="white"/><rect x="50" y="15" width="5" height="5" fill="white"/><rect x="20" y="25" width="5" height="5" fill="white"/><rect x="30" y="25" width="5" height="5" fill="white"/><rect x="40" y="25" width="5" height="5" fill="white"/><rect x="50" y="25" width="5" height="5" fill="white"/><rect x="10" width="5" height="5" fill="black"/><rect x="20" width="5" height="5" fill="black"/><rect x="10" y="10" width="5" height="5" fill="black"/><rect x="10" y="20" width="5" height="5" fill="black"/><rect x="20" y="10" width="5" height="5" fill="black"/><rect x="30" y="10" width="5" height="5" fill="black"/><rect x="20" y="20" width="5" height="5" fill="black"/><rect x="30" y="30" width="5" height="5" fill="black"/><rect x="40" y="30" width="5" height="5" fill="black"/><rect x="40" y="40" width="5" height="5" fill="black"/><rect x="50" y="30" width="5" height="5" fill="black"/><rect x="50" y="40" width="5" height="5" fill="black"/><rect x="30" y="20" width="5" height="5" fill="black"/><rect x="40" y="20" width="5" height="5" fill="black"/><rect x="50" y="20" width="5" height="5" fill="black"/><rect x="5" y="5" width="5" height="5" fill="black"/><rect x="5" y="15" width="5" height="5" fill="black"/><rect x="5" y="25" width="5" height="5" fill="black"/><rect x="15" y="5" width="5" height="5" fill="black"/><rect x="25" y="5" width="5" height="5" fill="black"/><rect x="15" y="15" width="5" height="5" fill="black"/><rect x="15" y="25" width="5" height="5" fill="black"/><rect x="25" y="15" width="5" height="5" fill="black"/><rect x="35" y="15" width="5" height="5" fill="black"/><rect x="45" y="15" width="5" height="5" fill="black"/><rect x="25" y="25" width="5" height="5" fill="black"/><rect x="35" y="25" width="5" height="5" fill="black"/><rect x="45" y="25" width="5" height="5" fill="black"/><rect x="35" y="35" width="5" height="5" fill="black"/><rect x="45" y="35" width="5" height="5" fill="black"/></g></g></g></svg>
